<?xml version="1.0" encoding="UTF-8" standalone="no"?>
<!-- Created with Inkscape (http://www.inkscape.org/) -->

<svg
   version="1.1"
   id="svg1"
   width="136.96001"
   height="136.96001"
   viewBox="0 0 136.96001 136.96001"
   sodipodi:docname="eComet_MeteoPoint.svg"
   xml:space="preserve"
   inkscape:version="1.4.2 (f4327f4, 2025-05-13)"
   xmlns:inkscape="http://www.inkscape.org/namespaces/inkscape"
   xmlns:sodipodi="http://sodipodi.sourceforge.net/DTD/sodipodi-0.dtd"
   xmlns:xlink="http://www.w3.org/1999/xlink"
   xmlns="http://www.w3.org/2000/svg"
   xmlns:svg="http://www.w3.org/2000/svg"><defs
     id="defs1"><linearGradient
       id="linearGradient10"
       inkscape:collect="always"><stop
         style="stop-color:#b64000;stop-opacity:0.53159851;"
         offset="0"
         id="stop10" /><stop
         style="stop-color:#b50a0a;stop-opacity:1;"
         offset="1"
         id="stop11" /></linearGradient><linearGradient
       id="linearGradient8"
       inkscape:collect="always"><stop
         style="stop-color:#0000cb;stop-opacity:0.68115944;"
         offset="0"
         id="stop8" /><stop
         style="stop-color:#000091;stop-opacity:0;"
         offset="1"
         id="stop9" /></linearGradient><linearGradient
       id="swatch7"><stop
         style="stop-color:#000000;stop-opacity:0.65799254;"
         offset="0"
         id="stop7" /></linearGradient><style
       id="style1">.a{fill:none;stroke:#000000;stroke-linecap:round;stroke-linejoin:round;}</style><filter
       inkscape:collect="always"
       style="color-interpolation-filters:sRGB"
       id="filter7"
       x="-0.02080249"
       y="-0.030519243"
       width="1.0415975"
       height="1.0610542"><feGaussianBlur
         inkscape:collect="always"
         stdDeviation="1.4783654"
         id="feGaussianBlur7" /></filter><linearGradient
       inkscape:collect="always"
       xlink:href="#linearGradient8"
       id="linearGradient9"
       x1="33.451904"
       y1="28.636378"
       x2="540.23296"
       y2="28.636378"
       gradientUnits="userSpaceOnUse" /><linearGradient
       inkscape:collect="always"
       xlink:href="#linearGradient10"
       id="linearGradient11"
       x1="170.13333"
       y1="152.67553"
       x2="346.54728"
       y2="152.67553"
       gradientUnits="userSpaceOnUse"
       gradientTransform="matrix(0.203935,0,0,0.203935,49.275012,106.26393)" /></defs><sodipodi:namedview
     id="namedview1"
     pagecolor="#ffffff"
     bordercolor="#000000"
     borderopacity="0.25"
     inkscape:showpageshadow="2"
     inkscape:pageopacity="0.0"
     inkscape:pagecheckerboard="0"
     inkscape:deskcolor="#d1d1d1"
     inkscape:zoom="2.16"
     inkscape:cx="68.287037"
     inkscape:cy="79.398148"
     inkscape:window-width="1920"
     inkscape:window-height="991"
     inkscape:window-x="-9"
     inkscape:window-y="-9"
     inkscape:window-maximized="1"
     inkscape:current-layer="svg1" /><g
     id="g15"
     transform="matrix(1.3362111,0,0,1.3362111,-74.294162,-57.293727)"
     inkscape:export-filename="eComet_MeteoPoint_ldpi.png"
     inkscape:export-xdpi="96"
     inkscape:export-ydpi="96"><g
       inkscape:groupmode="layer"
       id="layer1"
       inkscape:label="meteo"><g
         id="g14"><path
           style="fill:#b4b4ff;fill-opacity:1;stroke:none;stroke-width:1;stroke-dasharray:none;stroke-opacity:1"
           d="M 113.92045,180.11363 96.354262,149.92912 80.562923,149.72791 C 44.751845,147.99383 49.584629,106.01831 71.52003,99.05284 76.899276,69.35648 111.65478,69.237585 121.863,84.008025 L 125.79283,78.278763 109.60022,62.3228 c -0.9624,-4.521637 1.89813,-5.823959 5.56349,-5.71783 l 16.37038,15.554121 c 3.83913,-2.852532 6.47102,-4.296613 10.31015,-4.332243 l 0.75739,-21.531462 c 2.63989,-3.744055 6.28582,-3.061551 8.5233,0.236647 l 0.61505,21.129047 c 4.73466,0.20921 7.45725,1.424456 11.18587,3.645738 L 176.29013,58.3924 c 5.44879,-0.780821 6.0686,2.462502 6.68842,4.900997 l -14.34688,15.080254 c 2.21348,1.89413 5.52787,6.912688 5.23197,11.114985 h 19.60227 c 5.96591,1.893941 6.25,7.196973 0,9.943186 l -20.45454,10e-7 -4.26137,8.806807 14.48863,16.19319 c 2.08334,4.92424 -0.94696,8.14394 -5.68181,6.25 l -14.3466,-13.92046 -3.26704,1.42046 c 3.125,10.79545 3.125,30.11364 -20.45455,31.53409 h -19.03409 z"
           id="path13"
           sodipodi:nodetypes="ccccccccccccccccccccccccccccc" /><g
           id="g13"><path
             class="a"
             d="m 518.33334,69.166671 c 14.02963,26.113946 13.28722,57.682819 -1.95445,83.108399 -15.24168,25.42557 -42.73492,40.9583 -72.37888,40.8916 H 160.66667 c -88.000005,0 -115.333339,-62 -115.333339,-107.666666 0.005,-50.503862 35.165612,-94.1945242 84.499999,-105.000002 1.58877,-50.580045 34.69506,-94.744392 82.79931,-110.455712 48.10426,-15.71132 100.89643,0.39775 132.03403,40.289044 145.21283,-7.618935 174.93271,108.705793 173.66667,158.833337 z"
             id="path1"
             style="mix-blend-mode:multiply;fill:url(#linearGradient9);fill-opacity:0.681159;stroke:#000000;stroke-width:13;stroke-linecap:round;stroke-linejoin:round;stroke-dasharray:none;filter:url(#filter7)"
             sodipodi:nodetypes="csccscscc"
             transform="matrix(0.203935,0,0,0.203935,49.275012,106.26393)" /><circle
             class="a"
             cx="146.586"
             cy="93.891876"
             r="21.243231"
             id="circle1"
             style="fill:#e2ff37;fill-opacity:1;stroke:#000000;stroke-width:2.65115;stroke-linecap:round;stroke-linejoin:round;stroke-dasharray:none" /><line
             class="a"
             x1="146.586"
             y1="49.400051"
             x2="146.586"
             y2="67.380318"
             id="line1"
             style="fill:none;stroke:#000000;stroke-width:2.65115;stroke-linecap:round;stroke-linejoin:round;stroke-dasharray:none" /><line
             class="a"
             x1="178.05997"
             y1="62.417904"
             x2="165.34802"
             y2="75.129852"
             id="line2"
             style="fill:none;stroke:#000000;stroke-width:2.65115;stroke-linecap:round;stroke-linejoin:round;stroke-dasharray:none" /><line
             class="a"
             x1="191.07782"
             y1="93.891876"
             x2="173.09755"
             y2="93.891876"
             id="line3"
             style="fill:none;stroke:#000000;stroke-width:2.65115;stroke-linecap:round;stroke-linejoin:round;stroke-dasharray:none" /><line
             class="a"
             x1="178.05997"
             y1="125.33186"
             x2="165.34802"
             y2="112.6199"
             id="line4"
             style="fill:none;stroke:#000000;stroke-width:2.65115;stroke-linecap:round;stroke-linejoin:round;stroke-dasharray:none" /><line
             class="a"
             x1="115.14602"
             y1="62.417904"
             x2="127.85797"
             y2="75.129852"
             id="line5"
             style="fill:none;stroke:#000000;stroke-width:2.65115;stroke-linecap:round;stroke-linejoin:round;stroke-dasharray:none" /><path
             style="fill:url(#linearGradient11);fill-opacity:1;stroke:#000000;stroke-width:2.65115;stroke-dasharray:none;stroke-opacity:1"
             d="m 86.615223,103.67884 h 24.127517 l -5.45741,33.31896 h 12.63822 l -5.45741,31.0211 -22.404128,-37.62745 8.616972,-0.28723 z"
             id="path2"
             sodipodi:nodetypes="cccccccc" /></g></g></g></g></svg>
